<svg id="Calque_1" data-name="Calque 1" xmlns="http://www.w3.org/2000/svg" viewBox="0 0 665.29 425.2"><title>Plan de travail 1_1</title><path d="M348.38,425.2V79.09C348.38,30.61,381.54,0,435.12,0H583.65C574.3,31.47,570.9,64.63,570.9,98.93a380.23,380.23,0,0,0,10.2,88.72H492.38c-76,0-112.82,43.66-112.82,98.37,0,71.71,71.15,106,147.12,106,49.89,0,98.64-17,138.61-45.07V425.2Zm-307,0c3.68-47.91,43.37-86.46,91.84-86.46,48.75,0,88.16,38.27,91.84,86.46H327.4V79.09C327.4,30.61,294.24,0,240.66,0H129.26V187.65H270.14c15.31,0,26.08,8.79,26.08,24.38,0,22.11-21.26,30.33-55.27,41.1L103.18,297.07C49,314.36,4.82,358,0,425.2Z"/></svg>